<svg xmlns="http://www.w3.org/2000/svg" viewBox="0 -2 32 32" width="60" height="60"><title>folder_type_git_opened</title><path d="M22.833,4.583H15.167L13.417,8.083H3.583V22.083H24.583V4.583Zm0,15.583H5.5V9.833H22.833Zm0-12.083H16l0.833-1.75h5.917V8.083Z" style="fill:#db847b"/><polygon points="21.417 11.417 0.417 11.417 3.583 22.083 24.583 22.083 21.417 11.417" style="fill:#db847b"/><path d="M25.5,16.304,17.863,8.667a1.127,1.127,0,0,0-1.594,0l-1.583,1.583,2.013,2.013a1.338,1.338,0,0,1,1.695,1.706L20.333,15.909a1.339,1.339,0,1,1-.803.756L17.717,14.856V19.617a1.338,1.338,0,1,1-1.103-.039V14.773a1.342,1.342,0,0,1-.727-1.758l-1.984-1.984L8.667,16.268a1.128,1.128,0,0,0,0,1.594L16.304,25.5a1.128,1.128,0,0,0,1.594,0L25.5,17.898a1.128,1.128,0,0,0,0-1.594" style="fill:#dd4c35"/><path d="M14.683,10.25l2.013,2.013a1.338,1.338,0,0,1,1.695,1.706L20.333,15.909a1.339,1.339,0,1,1-.803.756L17.717,14.856V19.617a1.338,1.338,0,1,1-1.103-.039V14.773a1.342,1.342,0,0,1-.727-1.758l-1.984-1.984" style="fill:#fff"/></svg>