<svg xmlns="http://www.w3.org/2000/svg" viewBox="0 3 48 48" width="48" height="45">
 <rect style="opacity:0.2" width="40" height="26" x="4" y="20" rx="2" ry="2"/>
 <path style="fill:#4877b1" d="M 4,35 C 4,36.108 4.892,37 6,37 H 42 C 43.108,37 44,36.108 44,35 V 13 C 44,11.892 43.108,11 42,11 H 22 V 9.5 C 22,8.392 21.109,7.5 20,7.5 H 6 C 4.892,7.5 4,8.392 4,9.5"/>
 <rect style="opacity:0.2" width="40" height="26" x="4" y="16" rx="2" ry="2"/>
 <rect style="fill:#e4e4e4" width="34" height="16" x="7" y="14" rx="2" ry="2"/>
 <rect style="fill:#5294e2" width="40" height="26" x="4" y="17" rx="2" ry="2"/>
 <path style="opacity:0.1;fill:#ffffff" d="M 6 7.5 C 4.892 7.5 4 8.392 4 9.5 L 4 10.5 C 4 9.392 4.892 8.5 6 8.5 L 20 8.5 C 21.109 8.5 22 9.392 22 10.5 L 22 12 L 42 12 C 43.108 12 44 12.892 44 14 L 44 13 C 44 11.892 43.108 11 42 11 L 22 11 L 22 9.5 C 22 8.392 21.109 7.5 20 7.5 L 6 7.5 z"/>
 <path style="fill:#1d344f" d="M 23.68,20.5 C 23.68,20.5 24.616,21.088 23.973,22.593 22.978,24.7 24.973,25.25 24.973,25.25 24.973,25.25 24.369,24.73 25.239,23.047 26.211,21.172 23.68,20.5 23.68,20.5 Z M 26.25,23.66 C 26.25,23.66 24.586,24.364 25.727,26.332 26.422,27.636 25.651,28.286 25.651,28.286 25.651,28.286 27.668,27.635 26.669,25.865 25.785,24.239 26.25,23.66 26.25,23.66 Z M 21.086,23.75 C 21.086,23.75 19.894,25.023 21.16,26.551 21.975,27.543 21.497,28.375 21.497,28.375 21.497,28.375 23.18,27.144 22.134,25.701 21.185,24.395 21.086,23.75 21.086,23.75 Z M 21.497,28.375 H 17.5 L 20,38 H 28.5 L 29.024,36.27 C 29.269,36.339 29.524,36.383 29.795,36.383 31.732,36.383 33.25,35.148 33.25,33.358 33.25,31.784 32.172,30.479 30.75,30.111 L 31.037,28.375 Z M 30.38,30.9 A 1.1286,2.2571 15 0 1 30.417,30.906 1.1286,2.2571 15 0 1 30.924,33.396 1.1286,2.2571 15 0 1 29.313,35.209 Z"/>
</svg>